<?xml version="1.0" encoding="UTF-8"?>
<svg xmlns="http://www.w3.org/2000/svg" width="660" height="940" viewBox="0 0 660 940" fill="none">
  <title>Mid-field dust</title>
  <desc>Distributed light specks across the middle field. Sized for print: no sub-0.4pt dots that would vanish on press.</desc>
  <g id="particles_field_mid_01" style="mix-blend-mode:screen">
    <circle id="particles_field_mid_01__p000" cx="338.6" cy="631.3" r="0.98" fill="#c4b5fd" opacity="0.37"/>
    <circle id="particles_field_mid_01__p001" cx="122.3" cy="691.6" r="0.92" fill="#c4b5fd" opacity="0.36"/>
    <circle id="particles_field_mid_01__p002" cx="267.4" cy="519.9" r="0.68" fill="#e9d5ff" opacity="0.22"/>
    <circle id="particles_field_mid_01__p003" cx="537.2" cy="582.4" r="0.90" fill="#e9d5ff" opacity="0.48"/>
    <circle id="particles_field_mid_01__p004" cx="342.4" cy="549.9" r="0.81" fill="#ffffff" opacity="0.26"/>
    <circle id="particles_field_mid_01__p005" cx="458.4" cy="452.6" r="0.48" fill="#93c5fd" opacity="0.55"/>
    <circle id="particles_field_mid_01__p006" cx="329.9" cy="597.9" r="0.57" fill="#ffffff" opacity="0.51"/>
    <circle id="particles_field_mid_01__p007" cx="130.1" cy="669.8" r="0.67" fill="#e9d5ff" opacity="0.35"/>
    <circle id="particles_field_mid_01__p008" cx="129.4" cy="610.8" r="1.32" fill="#c4b5fd" opacity="0.51"/>
    <circle id="particles_field_mid_01__p009" cx="635.7" cy="451.2" r="0.52" fill="#e9d5ff" opacity="0.25"/>
    <circle id="particles_field_mid_01__p010" cx="299.6" cy="610.1" r="1.18" fill="#ffffff" opacity="0.32"/>
    <circle id="particles_field_mid_01__p011" cx="489.2" cy="626.9" r="0.88" fill="#67e8f9" opacity="0.44"/>
    <circle id="particles_field_mid_01__p012" cx="451.0" cy="458.9" r="1.05" fill="#e9d5ff" opacity="0.55"/>
    <circle id="particles_field_mid_01__p013" cx="113.3" cy="538.6" r="0.88" fill="#c4b5fd" opacity="0.40"/>
    <circle id="particles_field_mid_01__p014" cx="38.6" cy="595.9" r="0.86" fill="#67e8f9" opacity="0.31"/>
    <circle id="particles_field_mid_01__p015" cx="141.2" cy="573.0" r="0.68" fill="#e9d5ff" opacity="0.49"/>
    <circle id="particles_field_mid_01__p016" cx="500.9" cy="550.7" r="0.59" fill="#e9d5ff" opacity="0.34"/>
    <circle id="particles_field_mid_01__p017" cx="77.9" cy="667.1" r="0.90" fill="#93c5fd" opacity="0.48"/>
    <circle id="particles_field_mid_01__p018" cx="349.4" cy="464.2" r="1.31" fill="#ffffff" opacity="0.30"/>
    <circle id="particles_field_mid_01__p019" cx="415.6" cy="610.7" r="0.60" fill="#ffffff" opacity="0.38"/>
    <circle id="particles_field_mid_01__p020" cx="122.4" cy="596.7" r="0.60" fill="#93c5fd" opacity="0.22"/>
    <circle id="particles_field_mid_01__p021" cx="541.0" cy="531.5" r="0.76" fill="#67e8f9" opacity="0.31"/>
    <circle id="particles_field_mid_01__p022" cx="313.5" cy="593.6" r="0.59" fill="#67e8f9" opacity="0.42"/>
    <circle id="particles_field_mid_01__p023" cx="84.0" cy="623.5" r="0.58" fill="#67e8f9" opacity="0.35"/>
    <circle id="particles_field_mid_01__p024" cx="229.9" cy="588.0" r="1.24" fill="#ffffff" opacity="0.18"/>
    <circle id="particles_field_mid_01__p025" cx="38.0" cy="486.9" r="1.02" fill="#93c5fd" opacity="0.24"/>
    <circle id="particles_field_mid_01__p026" cx="263.1" cy="478.9" r="0.67" fill="#c4b5fd" opacity="0.49"/>
    <circle id="particles_field_mid_01__p027" cx="473.9" cy="672.0" r="0.45" fill="#93c5fd" opacity="0.32"/>
    <circle id="particles_field_mid_01__p028" cx="189.8" cy="654.1" r="0.69" fill="#93c5fd" opacity="0.34"/>
    <circle id="particles_field_mid_01__p029" cx="98.9" cy="670.6" r="1.31" fill="#e9d5ff" opacity="0.34"/>
    <circle id="particles_field_mid_01__p030" cx="212.1" cy="683.7" r="0.99" fill="#ffffff" opacity="0.43"/>
    <circle id="particles_field_mid_01__p031" cx="285.0" cy="423.8" r="0.84" fill="#93c5fd" opacity="0.25"/>
    <circle id="particles_field_mid_01__p032" cx="296.2" cy="529.7" r="0.51" fill="#c4b5fd" opacity="0.37"/>
    <circle id="particles_field_mid_01__p033" cx="81.4" cy="515.5" r="1.14" fill="#c4b5fd" opacity="0.32"/>
    <circle id="particles_field_mid_01__p034" cx="123.5" cy="494.3" r="1.29" fill="#67e8f9" opacity="0.33"/>
    <circle id="particles_field_mid_01__p035" cx="399.0" cy="575.4" r="0.53" fill="#ffffff" opacity="0.34"/>
    <circle id="particles_field_mid_01__p036" cx="452.0" cy="466.1" r="1.16" fill="#e9d5ff" opacity="0.15"/>
    <circle id="particles_field_mid_01__p037" cx="549.1" cy="602.3" r="1.32" fill="#c4b5fd" opacity="0.37"/>
    <circle id="particles_field_mid_01__p038" cx="616.2" cy="445.1" r="0.87" fill="#ffffff" opacity="0.26"/>
    <circle id="particles_field_mid_01__p039" cx="220.4" cy="452.8" r="1.09" fill="#ffffff" opacity="0.44"/>
    <circle id="particles_field_mid_01__p040" cx="242.6" cy="429.8" r="0.98" fill="#c4b5fd" opacity="0.16"/>
    <circle id="particles_field_mid_01__p041" cx="325.8" cy="562.1" r="1.25" fill="#ffffff" opacity="0.32"/>
    <circle id="particles_field_mid_01__p042" cx="112.3" cy="500.0" r="1.00" fill="#e9d5ff" opacity="0.33"/>
    <circle id="particles_field_mid_01__p043" cx="585.2" cy="483.8" r="0.84" fill="#93c5fd" opacity="0.28"/>
    <circle id="particles_field_mid_01__p044" cx="293.5" cy="587.5" r="0.65" fill="#93c5fd" opacity="0.36"/>
    <circle id="particles_field_mid_01__p045" cx="627.9" cy="595.1" r="0.99" fill="#93c5fd" opacity="0.15"/>
    <circle id="particles_field_mid_01__p046" cx="149.0" cy="637.0" r="0.78" fill="#67e8f9" opacity="0.53"/>
    <circle id="particles_field_mid_01__p047" cx="318.7" cy="592.9" r="1.06" fill="#ffffff" opacity="0.24"/>
    <circle id="particles_field_mid_01__p048" cx="101.0" cy="645.7" r="1.31" fill="#c4b5fd" opacity="0.19"/>
    <circle id="particles_field_mid_01__p049" cx="305.2" cy="474.5" r="1.08" fill="#93c5fd" opacity="0.51"/>
    <circle id="particles_field_mid_01__p050" cx="429.9" cy="669.8" r="0.51" fill="#c4b5fd" opacity="0.19"/>
    <circle id="particles_field_mid_01__p051" cx="28.8" cy="584.7" r="1.27" fill="#ffffff" opacity="0.26"/>
    <circle id="particles_field_mid_01__p052" cx="462.6" cy="441.0" r="0.96" fill="#67e8f9" opacity="0.53"/>
    <circle id="particles_field_mid_01__p053" cx="469.3" cy="518.2" r="0.86" fill="#c4b5fd" opacity="0.17"/>
    <circle id="particles_field_mid_01__p054" cx="623.3" cy="613.5" r="1.31" fill="#c4b5fd" opacity="0.22"/>
    <circle id="particles_field_mid_01__p055" cx="189.2" cy="448.1" r="1.10" fill="#c4b5fd" opacity="0.47"/>
    <circle id="particles_field_mid_01__p056" cx="28.1" cy="604.3" r="1.08" fill="#93c5fd" opacity="0.37"/>
    <circle id="particles_field_mid_01__p057" cx="521.2" cy="650.5" r="1.02" fill="#e9d5ff" opacity="0.41"/>
    <circle id="particles_field_mid_01__p058" cx="414.5" cy="433.5" r="0.99" fill="#93c5fd" opacity="0.22"/>
    <circle id="particles_field_mid_01__p059" cx="249.4" cy="676.6" r="0.92" fill="#ffffff" opacity="0.47"/>
    <circle id="particles_field_mid_01__p060" cx="12.5" cy="557.8" r="1.31" fill="#93c5fd" opacity="0.47"/>
    <circle id="particles_field_mid_01__p061" cx="516.1" cy="428.3" r="0.62" fill="#67e8f9" opacity="0.20"/>
    <circle id="particles_field_mid_01__p062" cx="129.4" cy="607.2" r="0.72" fill="#e9d5ff" opacity="0.43"/>
    <circle id="particles_field_mid_01__p063" cx="389.4" cy="423.2" r="0.88" fill="#c4b5fd" opacity="0.49"/>
    <circle id="particles_field_mid_01__p064" cx="357.1" cy="674.5" r="0.82" fill="#67e8f9" opacity="0.49"/>
    <circle id="particles_field_mid_01__p065" cx="237.8" cy="589.6" r="1.31" fill="#93c5fd" opacity="0.21"/>
    <circle id="particles_field_mid_01__p066" cx="615.4" cy="597.5" r="0.46" fill="#67e8f9" opacity="0.32"/>
    <circle id="particles_field_mid_01__p067" cx="469.7" cy="489.8" r="0.45" fill="#ffffff" opacity="0.52"/>
    <circle id="particles_field_mid_01__p068" cx="11.3" cy="568.4" r="0.96" fill="#93c5fd" opacity="0.19"/>
    <circle id="particles_field_mid_01__p069" cx="319.9" cy="635.2" r="1.12" fill="#e9d5ff" opacity="0.16"/>
  </g>
</svg>
