<?xml version="1.0" encoding="UTF-8"?>
<svg xmlns="http://www.w3.org/2000/svg" width="660" height="940" viewBox="0 0 660 940" fill="none">
  <title>Upper-right topology cluster</title>
  <desc>Graph-topology cluster: nodes plus sparse edges. Restrained ML/network language, never an infographic.</desc>
  <g id="data_nodes_cluster_01" style="mix-blend-mode:screen">
    <path id="data_nodes_cluster_01__edge_00" d="M 485.2 404.8 L 527.5 412.0" stroke="#a5b4fc" stroke-width="0.8" opacity="0.30"/>
    <path id="data_nodes_cluster_01__edge_01" d="M 485.2 404.8 L 480.1 393.9" stroke="#a5b4fc" stroke-width="0.8" opacity="0.30"/>
    <path id="data_nodes_cluster_01__edge_02" d="M 506.6 406.5 L 527.5 412.0" stroke="#a5b4fc" stroke-width="0.8" opacity="0.30"/>
    <path id="data_nodes_cluster_01__edge_03" d="M 506.6 406.5 L 478.4 401.0" stroke="#a5b4fc" stroke-width="0.8" opacity="0.30"/>
    <path id="data_nodes_cluster_01__edge_04" d="M 506.6 406.5 L 506.1 379.0" stroke="#a5b4fc" stroke-width="0.8" opacity="0.30"/>
    <path id="data_nodes_cluster_01__edge_05" d="M 527.5 412.0 L 478.4 401.0" stroke="#a5b4fc" stroke-width="0.8" opacity="0.30"/>
    <path id="data_nodes_cluster_01__edge_06" d="M 527.5 412.0 L 506.1 379.0" stroke="#a5b4fc" stroke-width="0.8" opacity="0.30"/>
    <path id="data_nodes_cluster_01__edge_07" d="M 505.7 417.2 L 478.4 401.0" stroke="#a5b4fc" stroke-width="0.8" opacity="0.30"/>
    <path id="data_nodes_cluster_01__edge_08" d="M 505.7 417.2 L 506.1 379.0" stroke="#a5b4fc" stroke-width="0.8" opacity="0.30"/>
    <path id="data_nodes_cluster_01__edge_09" d="M 506.1 379.0 L 480.1 393.9" stroke="#a5b4fc" stroke-width="0.8" opacity="0.30"/>
    <circle id="data_nodes_cluster_01__node_00" cx="485.2" cy="404.8" r="2.79" fill="#c7d2fe" opacity="0.72"/>
    <circle id="data_nodes_cluster_01__node_01" cx="506.6" cy="406.5" r="1.95" fill="#c7d2fe" opacity="0.72"/>
    <circle id="data_nodes_cluster_01__node_02" cx="527.5" cy="412.0" r="2.31" fill="#c7d2fe" opacity="0.72"/>
    <circle id="data_nodes_cluster_01__node_03" cx="505.7" cy="417.2" r="2.06" fill="#c7d2fe" opacity="0.72"/>
    <circle id="data_nodes_cluster_01__node_04" cx="478.4" cy="401.0" r="2.58" fill="#c7d2fe" opacity="0.72"/>
    <circle id="data_nodes_cluster_01__node_05" cx="506.1" cy="379.0" r="1.90" fill="#c7d2fe" opacity="0.72"/>
    <circle id="data_nodes_cluster_01__node_06" cx="480.1" cy="393.9" r="1.70" fill="#c7d2fe" opacity="0.72"/>
  </g>
</svg>
